<mxfile host="app.diagrams.net" modified="2023-07-23T18:43:43.532Z" agent="Mozilla/5.0 (Macintosh; Intel Mac OS X 10_15_7) AppleWebKit/537.36 (KHTML, like Gecko) Chrome/114.0.0.0 Safari/537.36" etag="LHiKylKFnsEAOKH-6Slm" version="21.6.5" type="device">
  <diagram name="Page-1" id="wBmkMs_PG4Oa4959OU2F">
    <mxGraphModel dx="1680" dy="1583" grid="1" gridSize="10" guides="1" tooltips="1" connect="1" arrows="1" fold="1" page="1" pageScale="1" pageWidth="850" pageHeight="1100" math="0" shadow="0">
      <root>
        <mxCell id="0" />
        <mxCell id="1" parent="0" />
        <mxCell id="yUpCGc05juEt9pdATOdK-1" value="User" style="rounded=0;whiteSpace=wrap;html=1;" vertex="1" parent="1">
          <mxGeometry x="160" y="210" width="120" height="60" as="geometry" />
        </mxCell>
        <mxCell id="yUpCGc05juEt9pdATOdK-2" value="id" style="ellipse;whiteSpace=wrap;html=1;" vertex="1" parent="1">
          <mxGeometry x="-30" y="110" width="110" height="70" as="geometry" />
        </mxCell>
        <mxCell id="yUpCGc05juEt9pdATOdK-3" value="" style="endArrow=none;html=1;rounded=0;entryX=1;entryY=1;entryDx=0;entryDy=0;exitX=0.2;exitY=-0.017;exitDx=0;exitDy=0;exitPerimeter=0;" edge="1" parent="1" source="yUpCGc05juEt9pdATOdK-1" target="yUpCGc05juEt9pdATOdK-2">
          <mxGeometry width="50" height="50" relative="1" as="geometry">
            <mxPoint x="400" y="300" as="sourcePoint" />
            <mxPoint x="450" y="250" as="targetPoint" />
          </mxGeometry>
        </mxCell>
        <mxCell id="yUpCGc05juEt9pdATOdK-4" value="name" style="ellipse;whiteSpace=wrap;html=1;" vertex="1" parent="1">
          <mxGeometry x="165" y="40" width="110" height="70" as="geometry" />
        </mxCell>
        <mxCell id="yUpCGc05juEt9pdATOdK-5" value="" style="endArrow=none;html=1;rounded=0;entryX=0.5;entryY=1;entryDx=0;entryDy=0;exitX=0.5;exitY=0;exitDx=0;exitDy=0;" edge="1" parent="1" source="yUpCGc05juEt9pdATOdK-1" target="yUpCGc05juEt9pdATOdK-4">
          <mxGeometry width="50" height="50" relative="1" as="geometry">
            <mxPoint x="400" y="300" as="sourcePoint" />
            <mxPoint x="450" y="250" as="targetPoint" />
          </mxGeometry>
        </mxCell>
        <mxCell id="yUpCGc05juEt9pdATOdK-6" value="email(username)" style="ellipse;whiteSpace=wrap;html=1;" vertex="1" parent="1">
          <mxGeometry x="300" y="60" width="110" height="70" as="geometry" />
        </mxCell>
        <mxCell id="yUpCGc05juEt9pdATOdK-7" value="" style="endArrow=none;html=1;rounded=0;entryX=0.5;entryY=1;entryDx=0;entryDy=0;exitX=0.75;exitY=0;exitDx=0;exitDy=0;" edge="1" parent="1" source="yUpCGc05juEt9pdATOdK-1" target="yUpCGc05juEt9pdATOdK-6">
          <mxGeometry width="50" height="50" relative="1" as="geometry">
            <mxPoint x="400" y="300" as="sourcePoint" />
            <mxPoint x="450" y="250" as="targetPoint" />
          </mxGeometry>
        </mxCell>
        <mxCell id="yUpCGc05juEt9pdATOdK-8" value="password" style="ellipse;whiteSpace=wrap;html=1;" vertex="1" parent="1">
          <mxGeometry x="-20" y="210" width="110" height="70" as="geometry" />
        </mxCell>
        <mxCell id="yUpCGc05juEt9pdATOdK-9" value="about" style="ellipse;whiteSpace=wrap;html=1;" vertex="1" parent="1">
          <mxGeometry x="10" y="308" width="110" height="70" as="geometry" />
        </mxCell>
        <mxCell id="yUpCGc05juEt9pdATOdK-10" value="" style="endArrow=none;html=1;rounded=0;exitX=1;exitY=0.5;exitDx=0;exitDy=0;entryX=0;entryY=0.25;entryDx=0;entryDy=0;" edge="1" parent="1" source="yUpCGc05juEt9pdATOdK-8" target="yUpCGc05juEt9pdATOdK-1">
          <mxGeometry width="50" height="50" relative="1" as="geometry">
            <mxPoint x="400" y="300" as="sourcePoint" />
            <mxPoint x="450" y="250" as="targetPoint" />
          </mxGeometry>
        </mxCell>
        <mxCell id="yUpCGc05juEt9pdATOdK-12" value="" style="endArrow=none;html=1;rounded=0;exitX=1;exitY=0.5;exitDx=0;exitDy=0;entryX=0;entryY=1;entryDx=0;entryDy=0;" edge="1" parent="1" source="yUpCGc05juEt9pdATOdK-9" target="yUpCGc05juEt9pdATOdK-1">
          <mxGeometry width="50" height="50" relative="1" as="geometry">
            <mxPoint x="400" y="300" as="sourcePoint" />
            <mxPoint x="450" y="250" as="targetPoint" />
          </mxGeometry>
        </mxCell>
        <mxCell id="yUpCGc05juEt9pdATOdK-13" value="Post" style="rounded=0;whiteSpace=wrap;html=1;" vertex="1" parent="1">
          <mxGeometry x="530" y="210" width="120" height="60" as="geometry" />
        </mxCell>
        <mxCell id="yUpCGc05juEt9pdATOdK-14" value="post_id" style="ellipse;whiteSpace=wrap;html=1;" vertex="1" parent="1">
          <mxGeometry x="420" y="120" width="110" height="70" as="geometry" />
        </mxCell>
        <mxCell id="yUpCGc05juEt9pdATOdK-15" value="" style="endArrow=none;html=1;rounded=0;entryX=0.5;entryY=1;entryDx=0;entryDy=0;exitX=0;exitY=0;exitDx=0;exitDy=0;" edge="1" parent="1" source="yUpCGc05juEt9pdATOdK-13" target="yUpCGc05juEt9pdATOdK-14">
          <mxGeometry width="50" height="50" relative="1" as="geometry">
            <mxPoint x="530" y="200" as="sourcePoint" />
            <mxPoint x="450" y="250" as="targetPoint" />
          </mxGeometry>
        </mxCell>
        <mxCell id="yUpCGc05juEt9pdATOdK-16" value="title" style="ellipse;whiteSpace=wrap;html=1;" vertex="1" parent="1">
          <mxGeometry x="500" y="50" width="110" height="70" as="geometry" />
        </mxCell>
        <mxCell id="yUpCGc05juEt9pdATOdK-17" value="content" style="ellipse;whiteSpace=wrap;html=1;" vertex="1" parent="1">
          <mxGeometry x="700" y="60" width="110" height="70" as="geometry" />
        </mxCell>
        <mxCell id="yUpCGc05juEt9pdATOdK-18" value="image" style="ellipse;whiteSpace=wrap;html=1;" vertex="1" parent="1">
          <mxGeometry x="730" y="140" width="110" height="70" as="geometry" />
        </mxCell>
        <mxCell id="yUpCGc05juEt9pdATOdK-19" value="&lt;b&gt;user_id&lt;/b&gt;" style="ellipse;whiteSpace=wrap;html=1;fillColor=#ffe6cc;strokeColor=#d79b00;" vertex="1" parent="1">
          <mxGeometry x="720" y="218" width="110" height="70" as="geometry" />
        </mxCell>
        <mxCell id="yUpCGc05juEt9pdATOdK-20" value="" style="endArrow=none;html=1;rounded=0;entryX=0.5;entryY=1;entryDx=0;entryDy=0;exitX=0.333;exitY=0.033;exitDx=0;exitDy=0;exitPerimeter=0;" edge="1" parent="1" source="yUpCGc05juEt9pdATOdK-13" target="yUpCGc05juEt9pdATOdK-16">
          <mxGeometry width="50" height="50" relative="1" as="geometry">
            <mxPoint x="580" y="200" as="sourcePoint" />
            <mxPoint x="450" y="250" as="targetPoint" />
          </mxGeometry>
        </mxCell>
        <mxCell id="yUpCGc05juEt9pdATOdK-21" value="" style="endArrow=none;html=1;rounded=0;entryX=0;entryY=1;entryDx=0;entryDy=0;exitX=0.75;exitY=0;exitDx=0;exitDy=0;" edge="1" parent="1" source="yUpCGc05juEt9pdATOdK-13" target="yUpCGc05juEt9pdATOdK-17">
          <mxGeometry width="50" height="50" relative="1" as="geometry">
            <mxPoint x="400" y="300" as="sourcePoint" />
            <mxPoint x="450" y="250" as="targetPoint" />
          </mxGeometry>
        </mxCell>
        <mxCell id="yUpCGc05juEt9pdATOdK-22" value="" style="endArrow=none;html=1;rounded=0;entryX=0.073;entryY=0.757;entryDx=0;entryDy=0;entryPerimeter=0;exitX=1;exitY=0.25;exitDx=0;exitDy=0;" edge="1" parent="1" source="yUpCGc05juEt9pdATOdK-13" target="yUpCGc05juEt9pdATOdK-18">
          <mxGeometry width="50" height="50" relative="1" as="geometry">
            <mxPoint x="400" y="300" as="sourcePoint" />
            <mxPoint x="450" y="250" as="targetPoint" />
          </mxGeometry>
        </mxCell>
        <mxCell id="yUpCGc05juEt9pdATOdK-23" value="" style="endArrow=none;html=1;rounded=0;entryX=0;entryY=0.5;entryDx=0;entryDy=0;exitX=1;exitY=1;exitDx=0;exitDy=0;" edge="1" parent="1" source="yUpCGc05juEt9pdATOdK-13" target="yUpCGc05juEt9pdATOdK-19">
          <mxGeometry width="50" height="50" relative="1" as="geometry">
            <mxPoint x="400" y="300" as="sourcePoint" />
            <mxPoint x="450" y="250" as="targetPoint" />
          </mxGeometry>
        </mxCell>
        <mxCell id="yUpCGc05juEt9pdATOdK-24" value="creates" style="rhombus;whiteSpace=wrap;html=1;" vertex="1" parent="1">
          <mxGeometry x="340" y="235" width="110" height="125" as="geometry" />
        </mxCell>
        <mxCell id="yUpCGc05juEt9pdATOdK-25" value="" style="endArrow=none;html=1;rounded=0;entryX=1;entryY=0.75;entryDx=0;entryDy=0;" edge="1" parent="1" source="yUpCGc05juEt9pdATOdK-24" target="yUpCGc05juEt9pdATOdK-1">
          <mxGeometry width="50" height="50" relative="1" as="geometry">
            <mxPoint x="350" y="298" as="sourcePoint" />
            <mxPoint x="450" y="250" as="targetPoint" />
          </mxGeometry>
        </mxCell>
        <mxCell id="yUpCGc05juEt9pdATOdK-26" value="" style="endArrow=none;html=1;rounded=0;entryX=0;entryY=1;entryDx=0;entryDy=0;" edge="1" parent="1" source="yUpCGc05juEt9pdATOdK-24" target="yUpCGc05juEt9pdATOdK-13">
          <mxGeometry width="50" height="50" relative="1" as="geometry">
            <mxPoint x="400" y="300" as="sourcePoint" />
            <mxPoint x="450" y="250" as="targetPoint" />
          </mxGeometry>
        </mxCell>
        <mxCell id="yUpCGc05juEt9pdATOdK-27" value="1" style="text;html=1;align=center;verticalAlign=middle;resizable=0;points=[];autosize=1;strokeColor=none;fillColor=none;" vertex="1" parent="1">
          <mxGeometry x="305" y="238" width="30" height="30" as="geometry" />
        </mxCell>
        <mxCell id="yUpCGc05juEt9pdATOdK-28" value="n" style="text;html=1;align=center;verticalAlign=middle;resizable=0;points=[];autosize=1;strokeColor=none;fillColor=none;" vertex="1" parent="1">
          <mxGeometry x="465" y="248" width="30" height="30" as="geometry" />
        </mxCell>
        <mxCell id="yUpCGc05juEt9pdATOdK-29" value="Comment" style="rounded=0;whiteSpace=wrap;html=1;" vertex="1" parent="1">
          <mxGeometry x="520" y="470" width="120" height="60" as="geometry" />
        </mxCell>
        <mxCell id="yUpCGc05juEt9pdATOdK-30" value="comment_id" style="ellipse;whiteSpace=wrap;html=1;" vertex="1" parent="1">
          <mxGeometry x="450" y="340" width="110" height="80" as="geometry" />
        </mxCell>
        <mxCell id="yUpCGc05juEt9pdATOdK-31" value="comment" style="ellipse;whiteSpace=wrap;html=1;" vertex="1" parent="1">
          <mxGeometry x="710" y="390" width="110" height="80" as="geometry" />
        </mxCell>
        <mxCell id="yUpCGc05juEt9pdATOdK-32" value="&lt;b&gt;post_id&lt;/b&gt;" style="ellipse;whiteSpace=wrap;html=1;fillColor=#dae8fc;strokeColor=#6c8ebf;" vertex="1" parent="1">
          <mxGeometry x="730" y="488" width="110" height="80" as="geometry" />
        </mxCell>
        <mxCell id="yUpCGc05juEt9pdATOdK-33" value="user_id" style="ellipse;whiteSpace=wrap;html=1;fillColor=#ffe6cc;strokeColor=#d79b00;" vertex="1" parent="1">
          <mxGeometry x="355" y="430" width="110" height="80" as="geometry" />
        </mxCell>
        <mxCell id="yUpCGc05juEt9pdATOdK-34" value="" style="endArrow=none;html=1;rounded=0;entryX=0;entryY=0.5;entryDx=0;entryDy=0;exitX=0.933;exitY=0.72;exitDx=0;exitDy=0;exitPerimeter=0;" edge="1" parent="1" source="yUpCGc05juEt9pdATOdK-33" target="yUpCGc05juEt9pdATOdK-29">
          <mxGeometry width="50" height="50" relative="1" as="geometry">
            <mxPoint x="360" y="420" as="sourcePoint" />
            <mxPoint x="410" y="370" as="targetPoint" />
          </mxGeometry>
        </mxCell>
        <mxCell id="yUpCGc05juEt9pdATOdK-35" value="" style="endArrow=none;html=1;rounded=0;entryX=0.5;entryY=1;entryDx=0;entryDy=0;exitX=0;exitY=0;exitDx=0;exitDy=0;" edge="1" parent="1" source="yUpCGc05juEt9pdATOdK-29" target="yUpCGc05juEt9pdATOdK-30">
          <mxGeometry width="50" height="50" relative="1" as="geometry">
            <mxPoint x="360" y="420" as="sourcePoint" />
            <mxPoint x="410" y="370" as="targetPoint" />
          </mxGeometry>
        </mxCell>
        <mxCell id="yUpCGc05juEt9pdATOdK-36" value="" style="endArrow=none;html=1;rounded=0;entryX=0;entryY=1;entryDx=0;entryDy=0;exitX=0.997;exitY=0.118;exitDx=0;exitDy=0;exitPerimeter=0;" edge="1" parent="1" source="yUpCGc05juEt9pdATOdK-29" target="yUpCGc05juEt9pdATOdK-31">
          <mxGeometry width="50" height="50" relative="1" as="geometry">
            <mxPoint x="360" y="420" as="sourcePoint" />
            <mxPoint x="410" y="370" as="targetPoint" />
          </mxGeometry>
        </mxCell>
        <mxCell id="yUpCGc05juEt9pdATOdK-37" value="" style="endArrow=none;html=1;rounded=0;entryX=0.073;entryY=0.725;entryDx=0;entryDy=0;entryPerimeter=0;exitX=1;exitY=0.25;exitDx=0;exitDy=0;" edge="1" parent="1" source="yUpCGc05juEt9pdATOdK-29" target="yUpCGc05juEt9pdATOdK-32">
          <mxGeometry width="50" height="50" relative="1" as="geometry">
            <mxPoint x="360" y="420" as="sourcePoint" />
            <mxPoint x="410" y="370" as="targetPoint" />
          </mxGeometry>
        </mxCell>
        <mxCell id="yUpCGc05juEt9pdATOdK-38" value="creates" style="rhombus;whiteSpace=wrap;html=1;" vertex="1" parent="1">
          <mxGeometry x="180" y="480" width="110" height="130" as="geometry" />
        </mxCell>
        <mxCell id="yUpCGc05juEt9pdATOdK-39" value="" style="endArrow=none;html=1;rounded=0;exitX=0.5;exitY=0;exitDx=0;exitDy=0;" edge="1" parent="1" source="yUpCGc05juEt9pdATOdK-38" target="yUpCGc05juEt9pdATOdK-1">
          <mxGeometry width="50" height="50" relative="1" as="geometry">
            <mxPoint x="410" y="440" as="sourcePoint" />
            <mxPoint x="460" y="390" as="targetPoint" />
          </mxGeometry>
        </mxCell>
        <mxCell id="yUpCGc05juEt9pdATOdK-40" value="" style="endArrow=none;html=1;rounded=0;entryX=0;entryY=1;entryDx=0;entryDy=0;exitX=1;exitY=0.5;exitDx=0;exitDy=0;" edge="1" parent="1" source="yUpCGc05juEt9pdATOdK-38" target="yUpCGc05juEt9pdATOdK-29">
          <mxGeometry width="50" height="50" relative="1" as="geometry">
            <mxPoint x="410" y="440" as="sourcePoint" />
            <mxPoint x="460" y="390" as="targetPoint" />
          </mxGeometry>
        </mxCell>
        <mxCell id="yUpCGc05juEt9pdATOdK-41" value="1" style="text;html=1;align=center;verticalAlign=middle;resizable=0;points=[];autosize=1;strokeColor=none;fillColor=none;" vertex="1" parent="1">
          <mxGeometry x="225" y="358" width="30" height="30" as="geometry" />
        </mxCell>
        <mxCell id="yUpCGc05juEt9pdATOdK-42" value="n" style="text;html=1;align=center;verticalAlign=middle;resizable=0;points=[];autosize=1;strokeColor=none;fillColor=none;" vertex="1" parent="1">
          <mxGeometry x="365" y="538" width="30" height="30" as="geometry" />
        </mxCell>
        <mxCell id="yUpCGc05juEt9pdATOdK-43" value="has" style="rhombus;whiteSpace=wrap;html=1;" vertex="1" parent="1">
          <mxGeometry x="600" y="320" width="80" height="80" as="geometry" />
        </mxCell>
        <mxCell id="yUpCGc05juEt9pdATOdK-44" value="" style="endArrow=none;html=1;rounded=0;entryX=0.5;entryY=1;entryDx=0;entryDy=0;exitX=0.603;exitY=0.013;exitDx=0;exitDy=0;exitPerimeter=0;" edge="1" parent="1" source="yUpCGc05juEt9pdATOdK-29" target="yUpCGc05juEt9pdATOdK-43">
          <mxGeometry width="50" height="50" relative="1" as="geometry">
            <mxPoint x="410" y="440" as="sourcePoint" />
            <mxPoint x="460" y="390" as="targetPoint" />
          </mxGeometry>
        </mxCell>
        <mxCell id="yUpCGc05juEt9pdATOdK-45" value="" style="endArrow=none;html=1;rounded=0;entryX=0.75;entryY=1;entryDx=0;entryDy=0;exitX=0.5;exitY=0;exitDx=0;exitDy=0;" edge="1" parent="1" source="yUpCGc05juEt9pdATOdK-43" target="yUpCGc05juEt9pdATOdK-13">
          <mxGeometry width="50" height="50" relative="1" as="geometry">
            <mxPoint x="410" y="440" as="sourcePoint" />
            <mxPoint x="460" y="390" as="targetPoint" />
          </mxGeometry>
        </mxCell>
        <mxCell id="yUpCGc05juEt9pdATOdK-46" value="1" style="text;html=1;align=center;verticalAlign=middle;resizable=0;points=[];autosize=1;strokeColor=none;fillColor=none;" vertex="1" parent="1">
          <mxGeometry x="625" y="278" width="30" height="30" as="geometry" />
        </mxCell>
        <mxCell id="yUpCGc05juEt9pdATOdK-47" value="n" style="text;html=1;align=center;verticalAlign=middle;resizable=0;points=[];autosize=1;strokeColor=none;fillColor=none;" vertex="1" parent="1">
          <mxGeometry x="615" y="418" width="30" height="30" as="geometry" />
        </mxCell>
        <mxCell id="yUpCGc05juEt9pdATOdK-48" value="category" style="whiteSpace=wrap;html=1;" vertex="1" parent="1">
          <mxGeometry x="550" y="-160" width="120" height="60" as="geometry" />
        </mxCell>
        <mxCell id="yUpCGc05juEt9pdATOdK-49" value="category_id" style="ellipse;whiteSpace=wrap;html=1;" vertex="1" parent="1">
          <mxGeometry x="420" y="-290" width="110" height="70" as="geometry" />
        </mxCell>
        <mxCell id="yUpCGc05juEt9pdATOdK-50" value="title" style="ellipse;whiteSpace=wrap;html=1;" vertex="1" parent="1">
          <mxGeometry x="600" y="-290" width="110" height="70" as="geometry" />
        </mxCell>
        <mxCell id="yUpCGc05juEt9pdATOdK-51" value="" style="endArrow=none;html=1;rounded=0;entryX=0.37;entryY=0.989;entryDx=0;entryDy=0;entryPerimeter=0;exitX=0;exitY=0.25;exitDx=0;exitDy=0;" edge="1" parent="1" source="yUpCGc05juEt9pdATOdK-48" target="yUpCGc05juEt9pdATOdK-49">
          <mxGeometry width="50" height="50" relative="1" as="geometry">
            <mxPoint x="400" y="-130" as="sourcePoint" />
            <mxPoint x="450" y="-180" as="targetPoint" />
          </mxGeometry>
        </mxCell>
        <mxCell id="yUpCGc05juEt9pdATOdK-52" value="" style="endArrow=none;html=1;rounded=0;entryX=0;entryY=1;entryDx=0;entryDy=0;exitX=0.75;exitY=0;exitDx=0;exitDy=0;" edge="1" parent="1" source="yUpCGc05juEt9pdATOdK-48" target="yUpCGc05juEt9pdATOdK-50">
          <mxGeometry width="50" height="50" relative="1" as="geometry">
            <mxPoint x="400" y="-130" as="sourcePoint" />
            <mxPoint x="450" y="-180" as="targetPoint" />
          </mxGeometry>
        </mxCell>
        <mxCell id="yUpCGc05juEt9pdATOdK-53" value="has" style="rhombus;whiteSpace=wrap;html=1;" vertex="1" parent="1">
          <mxGeometry x="650" y="-60" width="80" height="80" as="geometry" />
        </mxCell>
        <mxCell id="yUpCGc05juEt9pdATOdK-54" value="" style="endArrow=none;html=1;rounded=0;entryX=0.677;entryY=1.039;entryDx=0;entryDy=0;entryPerimeter=0;exitX=0;exitY=0;exitDx=0;exitDy=0;" edge="1" parent="1" source="yUpCGc05juEt9pdATOdK-53" target="yUpCGc05juEt9pdATOdK-48">
          <mxGeometry width="50" height="50" relative="1" as="geometry">
            <mxPoint x="400" y="40" as="sourcePoint" />
            <mxPoint x="450" y="-10" as="targetPoint" />
          </mxGeometry>
        </mxCell>
        <mxCell id="yUpCGc05juEt9pdATOdK-55" value="" style="endArrow=none;html=1;rounded=0;entryX=0.5;entryY=1;entryDx=0;entryDy=0;exitX=0.5;exitY=0;exitDx=0;exitDy=0;" edge="1" parent="1" source="yUpCGc05juEt9pdATOdK-13" target="yUpCGc05juEt9pdATOdK-53">
          <mxGeometry width="50" height="50" relative="1" as="geometry">
            <mxPoint x="400" y="40" as="sourcePoint" />
            <mxPoint x="450" y="-10" as="targetPoint" />
          </mxGeometry>
        </mxCell>
        <mxCell id="yUpCGc05juEt9pdATOdK-56" value="1" style="text;html=1;align=center;verticalAlign=middle;resizable=0;points=[];autosize=1;strokeColor=none;fillColor=none;" vertex="1" parent="1">
          <mxGeometry x="645" y="-82" width="30" height="30" as="geometry" />
        </mxCell>
        <mxCell id="yUpCGc05juEt9pdATOdK-57" value="n" style="text;html=1;align=center;verticalAlign=middle;resizable=0;points=[];autosize=1;strokeColor=none;fillColor=none;" vertex="1" parent="1">
          <mxGeometry x="645" y="88" width="30" height="30" as="geometry" />
        </mxCell>
        <mxCell id="yUpCGc05juEt9pdATOdK-58" value="&lt;b&gt;category_id&lt;/b&gt;" style="ellipse;whiteSpace=wrap;html=1;fillColor=#e1d5e7;strokeColor=#9673a6;" vertex="1" parent="1">
          <mxGeometry x="700" y="288" width="90" height="60" as="geometry" />
        </mxCell>
        <mxCell id="yUpCGc05juEt9pdATOdK-60" value="" style="endArrow=none;html=1;rounded=0;exitX=0;exitY=0;exitDx=0;exitDy=0;entryX=0.96;entryY=0.991;entryDx=0;entryDy=0;entryPerimeter=0;" edge="1" parent="1" source="yUpCGc05juEt9pdATOdK-58" target="yUpCGc05juEt9pdATOdK-13">
          <mxGeometry width="50" height="50" relative="1" as="geometry">
            <mxPoint x="520" y="260" as="sourcePoint" />
            <mxPoint x="570" y="210" as="targetPoint" />
          </mxGeometry>
        </mxCell>
        <mxCell id="yUpCGc05juEt9pdATOdK-61" value="Role" style="rounded=0;whiteSpace=wrap;html=1;" vertex="1" parent="1">
          <mxGeometry x="-10" y="-142" width="120" height="60" as="geometry" />
        </mxCell>
        <mxCell id="yUpCGc05juEt9pdATOdK-62" value="role_id" style="ellipse;whiteSpace=wrap;html=1;" vertex="1" parent="1">
          <mxGeometry x="-120" y="-250" width="110" height="60" as="geometry" />
        </mxCell>
        <mxCell id="yUpCGc05juEt9pdATOdK-63" value="role_name" style="ellipse;whiteSpace=wrap;html=1;" vertex="1" parent="1">
          <mxGeometry x="40" y="-260" width="110" height="60" as="geometry" />
        </mxCell>
        <mxCell id="yUpCGc05juEt9pdATOdK-64" value="" style="endArrow=none;html=1;rounded=0;" edge="1" parent="1" source="yUpCGc05juEt9pdATOdK-61" target="yUpCGc05juEt9pdATOdK-63">
          <mxGeometry width="50" height="50" relative="1" as="geometry">
            <mxPoint x="160" y="-90" as="sourcePoint" />
            <mxPoint x="210" y="-140" as="targetPoint" />
          </mxGeometry>
        </mxCell>
        <mxCell id="yUpCGc05juEt9pdATOdK-65" value="" style="endArrow=none;html=1;rounded=0;entryX=0.909;entryY=0.742;entryDx=0;entryDy=0;entryPerimeter=0;exitX=0.25;exitY=0;exitDx=0;exitDy=0;" edge="1" parent="1" source="yUpCGc05juEt9pdATOdK-61" target="yUpCGc05juEt9pdATOdK-62">
          <mxGeometry width="50" height="50" relative="1" as="geometry">
            <mxPoint x="160" y="-90" as="sourcePoint" />
            <mxPoint x="210" y="-140" as="targetPoint" />
          </mxGeometry>
        </mxCell>
        <mxCell id="yUpCGc05juEt9pdATOdK-66" value="has" style="rhombus;whiteSpace=wrap;html=1;" vertex="1" parent="1">
          <mxGeometry x="25" y="-30" width="80" height="80" as="geometry" />
        </mxCell>
        <mxCell id="yUpCGc05juEt9pdATOdK-67" value="" style="endArrow=none;html=1;rounded=0;" edge="1" parent="1" source="yUpCGc05juEt9pdATOdK-66" target="yUpCGc05juEt9pdATOdK-61">
          <mxGeometry width="50" height="50" relative="1" as="geometry">
            <mxPoint x="160" y="50" as="sourcePoint" />
            <mxPoint x="210" as="targetPoint" />
          </mxGeometry>
        </mxCell>
        <mxCell id="yUpCGc05juEt9pdATOdK-68" value="" style="endArrow=none;html=1;rounded=0;exitX=0.299;exitY=-0.036;exitDx=0;exitDy=0;exitPerimeter=0;entryX=1;entryY=1;entryDx=0;entryDy=0;" edge="1" parent="1" source="yUpCGc05juEt9pdATOdK-1" target="yUpCGc05juEt9pdATOdK-66">
          <mxGeometry width="50" height="50" relative="1" as="geometry">
            <mxPoint x="160" y="50" as="sourcePoint" />
            <mxPoint x="210" as="targetPoint" />
          </mxGeometry>
        </mxCell>
        <mxCell id="yUpCGc05juEt9pdATOdK-69" value="n" style="text;html=1;align=center;verticalAlign=middle;resizable=0;points=[];autosize=1;strokeColor=none;fillColor=none;" vertex="1" parent="1">
          <mxGeometry x="35" y="-72" width="30" height="30" as="geometry" />
        </mxCell>
        <mxCell id="yUpCGc05juEt9pdATOdK-70" value="n" style="text;html=1;align=center;verticalAlign=middle;resizable=0;points=[];autosize=1;strokeColor=none;fillColor=none;" vertex="1" parent="1">
          <mxGeometry x="115" y="108" width="30" height="30" as="geometry" />
        </mxCell>
      </root>
    </mxGraphModel>
  </diagram>
</mxfile>
